<?xml version="1.0" standalone="no"?><!-- Generator: Gravit.io --><svg xmlns="http://www.w3.org/2000/svg" xmlns:xlink="http://www.w3.org/1999/xlink" style="isolation:isolate" viewBox="844.363 373 57.637 48" width="57.637" height="48"><g><rect x="849.182" y="373" width="48" height="48" transform="matrix(1,0,0,1,0,0)" fill="none"/><path d=" M 886.071 392.757 C 886.852 391.976 886.852 390.71 886.071 389.929 C 885.29 389.148 884.024 389.148 883.243 389.929 L 879 394.172 L 874.757 389.929 C 873.976 389.148 872.71 389.148 871.929 389.929 C 871.148 390.71 871.148 391.976 871.929 392.757 L 876.172 397 L 871.929 401.243 C 871.148 402.024 871.148 403.29 871.929 404.071 C 872.71 404.852 873.976 404.852 874.757 404.071 L 879 399.828 L 883.243 404.071 C 884.024 404.852 885.29 404.852 886.071 404.071 C 886.852 403.29 886.852 402.024 886.071 401.243 L 881.828 397 L 886.071 392.757 Z " fill-rule="evenodd" fill="rgb(0,26,46)"/><path d=" M 861.144 384.186 C 862.284 382.802 863.983 382 865.775 382 L 888 382 C 891.314 382 894 384.686 894 388 L 894 406 C 894 409.314 891.314 412 888 412 L 865.775 412 C 863.983 412 862.284 411.198 861.144 409.814 L 853.732 400.814 C 851.907 398.599 851.907 395.401 853.732 393.186 L 861.144 384.186 Z " fill="none" vector-effect="non-scaling-stroke" stroke-width="4" stroke="rgb(0,26,46)" stroke-linejoin="miter" stroke-linecap="butt" stroke-miterlimit="4"/></g></svg>