<?xml version="1.0" standalone="no"?><!-- Generator: Gravit.io --><svg xmlns="http://www.w3.org/2000/svg" xmlns:xlink="http://www.w3.org/1999/xlink" style="isolation:isolate" viewBox="484 1060 36 36" width="36" height="36"><path d=" M 519.983 1088.41 C 520.059 1089 519.881 1089.5 519.449 1089.94 L 514.381 1094.97 C 514.152 1095.22 513.853 1095.44 513.485 1095.62 C 513.117 1095.8 512.755 1095.91 512.399 1095.96 C 512.374 1095.96 512.297 1095.97 512.17 1095.98 C 512.043 1095.99 511.878 1096 511.675 1096 C 511.192 1096 510.411 1095.92 509.331 1095.75 C 508.251 1095.59 506.93 1095.18 505.368 1094.53 C 503.805 1093.88 502.033 1092.91 500.051 1091.61 C 498.069 1090.32 495.96 1088.54 493.725 1086.28 C 491.946 1084.52 490.473 1082.84 489.304 1081.24 C 488.135 1079.64 487.195 1078.16 486.484 1076.8 C 485.772 1075.44 485.239 1074.21 484.883 1073.1 C 484.527 1071.99 484.286 1071.04 484.159 1070.24 C 484.032 1069.44 483.981 1068.81 484.006 1068.35 C 484.032 1067.89 484.044 1067.64 484.044 1067.59 C 484.095 1067.23 484.21 1066.87 484.387 1066.5 C 484.565 1066.13 484.781 1065.83 485.035 1065.61 L 490.104 1060.53 C 490.46 1060.18 490.866 1060 491.324 1060 C 491.654 1060 491.946 1060.1 492.2 1060.29 C 492.454 1060.48 492.67 1060.71 492.848 1060.99 L 496.926 1068.73 C 497.155 1069.14 497.218 1069.58 497.116 1070.07 C 497.015 1070.55 496.799 1070.96 496.469 1071.29 L 494.601 1073.16 C 494.55 1073.21 494.506 1073.29 494.468 1073.4 C 494.43 1073.52 494.411 1073.61 494.411 1073.69 C 494.512 1074.22 494.741 1074.83 495.097 1075.52 C 495.401 1076.13 495.871 1076.87 496.507 1077.75 C 497.142 1078.63 498.044 1079.64 499.213 1080.78 C 500.356 1081.95 501.372 1082.86 502.261 1083.51 C 503.15 1084.16 503.894 1084.64 504.491 1084.94 C 505.088 1085.25 505.545 1085.43 505.863 1085.49 L 506.339 1085.59 C 506.39 1085.59 506.473 1085.57 506.587 1085.53 C 506.701 1085.49 506.784 1085.45 506.835 1085.4 L 509.007 1083.19 C 509.464 1082.78 509.998 1082.58 510.608 1082.58 C 511.04 1082.58 511.382 1082.65 511.637 1082.8 L 511.675 1082.8 L 519.03 1087.15 C 519.564 1087.48 519.881 1087.9 519.983 1088.41 Z " fill="rgb(255,255,255)"/></svg>