<?xml version="1.0" standalone="no"?><!-- Generator: Gravit.io --><svg xmlns="http://www.w3.org/2000/svg" xmlns:xlink="http://www.w3.org/1999/xlink" style="isolation:isolate" viewBox="1157.229 1332 41.542 17.341" width="41.542" height="17.341"><path d=" M 1157.931 1349.052 C 1157.463 1348.692 1157.23 1348.212 1157.229 1347.602 L 1157.254 1340.452 C 1157.236 1340.112 1157.294 1339.752 1157.429 1339.362 C 1157.564 1338.982 1157.739 1338.642 1157.954 1338.352 C 1157.972 1338.332 1158.022 1338.282 1158.102 1338.182 C 1158.183 1338.082 1158.295 1337.962 1158.439 1337.812 C 1158.781 1337.472 1159.391 1336.982 1160.272 1336.332 C 1161.152 1335.682 1162.374 1335.042 1163.937 1334.392 C 1165.501 1333.742 1167.442 1333.182 1169.76 1332.702 C 1172.078 1332.212 1174.827 1331.982 1178.008 1332.002 C 1180.506 1331.982 1182.735 1332.122 1184.694 1332.432 C 1186.653 1332.742 1188.365 1333.122 1189.829 1333.582 C 1191.294 1334.042 1192.543 1334.532 1193.577 1335.062 C 1194.61 1335.592 1195.455 1336.102 1196.111 1336.572 C 1196.768 1337.052 1197.248 1337.462 1197.554 1337.802 C 1197.86 1338.142 1198.03 1338.332 1198.066 1338.372 C 1198.282 1338.652 1198.457 1338.992 1198.592 1339.382 C 1198.727 1339.762 1198.786 1340.132 1198.768 1340.472 L 1198.77 1347.642 C 1198.77 1348.142 1198.609 1348.562 1198.285 1348.882 C 1198.052 1349.112 1197.778 1349.252 1197.463 1349.302 C 1197.149 1349.342 1196.83 1349.332 1196.506 1349.262 L 1188.149 1346.662 C 1187.7 1346.542 1187.34 1346.272 1187.07 1345.862 C 1186.801 1345.442 1186.666 1345.002 1186.666 1344.532 L 1186.665 1341.892 C 1186.665 1341.822 1186.638 1341.732 1186.584 1341.622 C 1186.53 1341.522 1186.476 1341.432 1186.422 1341.382 C 1185.973 1341.072 1185.379 1340.812 1184.642 1340.572 C 1183.995 1340.362 1183.137 1340.162 1182.068 1339.992 C 1180.999 1339.822 1179.646 1339.742 1178.011 1339.762 C 1176.375 1339.742 1175.014 1339.822 1173.927 1339.992 C 1172.84 1340.162 1171.977 1340.352 1171.339 1340.552 C 1170.701 1340.762 1170.247 1340.952 1169.978 1341.132 L 1169.574 1341.402 C 1169.538 1341.442 1169.493 1341.512 1169.439 1341.622 C 1169.385 1341.732 1169.358 1341.822 1169.358 1341.892 L 1169.386 1344.992 C 1169.35 1345.602 1169.117 1346.122 1168.686 1346.552 C 1168.38 1346.862 1168.084 1347.042 1167.797 1347.122 L 1167.77 1347.142 L 1159.495 1349.272 C 1158.883 1349.412 1158.362 1349.342 1157.931 1349.052 Z " fill="rgb(255,255,255)"/></svg>